<?xml version="1.0" encoding="UTF-8"?>
<svg id="Capa_2" data-name="Capa 2" xmlns="http://www.w3.org/2000/svg" viewBox="0 0 299.23 101.51">
  <defs>
    <style>
      .cls-1 {
        fill: #fff;
      }

      .cls-1, .cls-2, .cls-3 {
        stroke-width: 0px;
      }

      .cls-2 {
        fill: #fcbf00;
      }

      .cls-3 {
        fill: #fcc505;
      }
    </style>
  </defs>
  <g id="Capa_1-2" data-name="Capa 1">
    <g>
      <path class="cls-1" d="m81.66,59.2c-1.71,51.11-48.15,38.57-81.66,40.18,6.89-5.45,2.49-21.68,3.66-44.35-.57-21.48,2.16-34.81-3.66-38.37,39.82.43,79.91-7.97,81.66,42.54Zm-25.29,0c-.56-32.91-9.43-39.14-30.37-37.7l.12,72.92c25.45,2.94,29.41-14.89,30.25-35.22Z"/>
      <path class="cls-1" d="m151.27,68.54c-.14,43.32-60.8,42.65-62.8,2.5-1.83-46.99,62.6-46.13,62.8-2.5Zm-22.22,13.83c-.09-3.34.21-26.86-.17-30.78-.46-11.84-13.1-12.52-16.92-5.25-3.09,7.34-1.57,37.75-.88,42.27,3.05,11.63,19.25,8.8,17.97-6.24Z"/>
      <path class="cls-1" d="m183.61,99.76h-27.42c6.89-5.45,2.49-21.68,3.66-44.35-.57-21.48,2.16-34.81-3.66-38.37l23.75.12c1.05,32.96-3.09,81.83,3.66,82.61Z"/>
      <path class="cls-1" d="m213.31,99.38h-27.42c6.74-6.08,2.57-15.92,3.66-33.21-.44-16.42,1.86-24.66-3.66-28.71h23.75c.98,16.62-2.95,60.93,3.66,61.93Zm-4.61-73.98c-.57,13.14-19.06,12.43-19.38,0,.57-13.14,19.06-12.43,19.38,0Z"/>
      <path class="cls-2" d="m299.23,73.62c-6.46,52.62-66.96,7.92-69.96,27.89-13.35-15.03,6.67-27.42,19.73-19.97,13.15,8.25,31.18,24.79,37.23,3.66-.34-18.85-35.07-16.66-47.7-24.44-19.84-11.08-11.83-38.54,5.77-43.86,17.34-5.76,33.92,3.55,50.44-.48,3.21,15.34-21.09,26.78-28.84,13.71,6.57-8.38-8.26-12.51-16.75-9.38-12.89,4.92-9.63,18.88,10.26,21.75,27.44,6.51,38.27,8.77,39.82,31.12Z"/>
      <path class="cls-3" d="m228.16,3.07c-8.49-10.07-17.63,7.7-5.2,9.14-.26.14-.63,3.23-7.16,6.94,7.48,1.89,17.43-8.01,12.35-16.08Z"/>
    </g>
  </g>
</svg>