<?xml version="1.0" encoding="UTF-8"?>
<svg id="Capa_2" data-name="Capa 2" xmlns="http://www.w3.org/2000/svg" viewBox="0 0 315 442">
  <defs>
    <style>
      .cls-1 {
        fill: #1e1e1e;
      }

      .cls-1, .cls-2, .cls-3, .cls-4 {
        stroke-width: 0px;
      }

      .cls-2 {
        fill: #fff;
      }

      .cls-3 {
        fill: #fcbf00;
      }

      .cls-4 {
        fill: #fcc505;
      }
    </style>
  </defs>
  <g id="Capa_1-2" data-name="Capa 1">
    <rect class="cls-1" width="315" height="442"/>
    <g>
      <g>
        <path class="cls-2" d="m97.27,216.08c-1.51,45.3-42.68,34.18-72.38,35.62,6.11-4.83,2.21-19.22,3.25-39.31-.5-19.04,1.91-30.86-3.25-34.01,35.3.38,70.83-7.07,72.38,37.71Zm-22.42,0c-.5-29.17-8.36-34.69-26.92-33.42l.1,64.63c22.56,2.6,26.07-13.2,26.82-31.22Z"/>
        <path class="cls-2" d="m158.97,224.36c-.12,38.4-53.89,37.81-55.66,2.21-1.63-41.65,55.48-40.89,55.66-2.21Zm-19.69,12.26c-.08-2.96.19-23.8-.15-27.28-.41-10.49-11.61-11.1-15-4.65-2.73,6.5-1.39,33.46-.78,37.46,2.71,10.31,17.06,7.8,15.93-5.53Z"/>
        <path class="cls-2" d="m187.63,252.03h-24.3c6.11-4.83,2.21-19.22,3.25-39.31-.5-19.04,1.91-30.86-3.25-34.01l21.06.1c.93,29.21-2.74,72.53,3.25,73.22Z"/>
        <path class="cls-2" d="m213.96,251.7h-24.3c5.97-5.39,2.28-14.11,3.25-29.44-.39-14.55,1.65-21.86-3.25-25.45h21.06c.87,14.73-2.62,54.01,3.25,54.89Zm-4.09-65.57c-.51,11.64-16.89,11.02-17.18,0,.51-11.64,16.89-11.02,17.18,0Z"/>
        <path class="cls-3" d="m290.11,228.86c-5.73,46.64-59.35,7.02-62.01,24.72-11.83-13.32,5.92-24.3,17.49-17.7,11.66,7.32,27.64,21.97,33,3.24-.3-16.71-31.09-14.77-42.28-21.66-17.59-9.82-10.48-34.16,5.11-38.87,15.37-5.1,30.07,3.15,44.71-.43,2.85,13.59-18.69,23.73-25.56,12.15,5.82-7.43-7.32-11.09-14.85-8.31-11.43,4.36-8.54,16.74,9.09,19.28,24.32,5.77,33.92,7.78,35.29,27.58Z"/>
        <path class="cls-4" d="m227.12,166.33c-7.53-8.92-15.62,6.82-4.61,8.1-.23.12-.56,2.87-6.34,6.15,6.63,1.68,15.45-7.1,10.95-14.25Z"/>
      </g>
      <g>
        <path class="cls-4" d="m40.02,278.19l-2.87-4.09c-.36.03-.63.04-.84.04h-3.29v4.05h-1.9v-13.32h5.19c1.72,0,3.08.41,4.07,1.24.99.82,1.48,1.96,1.48,3.41,0,1.03-.25,1.9-.76,2.63-.51.72-1.23,1.25-2.17,1.58l3.16,4.47h-2.07Zm-1.01-6.45c.63-.52.95-1.26.95-2.23s-.32-1.7-.95-2.22c-.63-.51-1.55-.77-2.76-.77h-3.23v5.99h3.23c1.2,0,2.12-.26,2.76-.78Z"/>
        <path class="cls-4" d="m57.46,276.53v1.66h-9.67v-13.32h9.4v1.66h-7.5v4.09h6.68v1.62h-6.68v4.3h7.76Z"/>
        <path class="cls-4" d="m64.38,277.87c-.93-.31-1.66-.71-2.2-1.21l.7-1.48c.51.46,1.16.83,1.95,1.11.79.29,1.61.43,2.44.43,1.1,0,1.93-.19,2.47-.56.55-.37.82-.87.82-1.49,0-.46-.15-.83-.45-1.11-.3-.29-.67-.5-1.1-.66-.44-.15-1.06-.32-1.86-.51-1-.24-1.81-.48-2.43-.72-.62-.24-1.14-.61-1.58-1.11-.44-.5-.66-1.18-.66-2.03,0-.71.19-1.35.56-1.92.37-.57.94-1.03,1.7-1.37.76-.34,1.71-.51,2.83-.51.79,0,1.56.1,2.32.3.76.2,1.41.49,1.96.88l-.63,1.52c-.56-.35-1.15-.62-1.79-.81-.63-.18-1.26-.28-1.86-.28-1.08,0-1.89.2-2.43.59-.54.39-.81.9-.81,1.52,0,.46.15.83.46,1.11.3.29.68.51,1.13.67.45.16,1.06.33,1.84.5,1,.24,1.81.48,2.42.72.61.24,1.13.61,1.57,1.1.44.49.66,1.16.66,2,0,.7-.19,1.34-.57,1.91-.38.58-.96,1.03-1.73,1.37-.77.34-1.73.5-2.85.5-1,0-1.97-.16-2.9-.47Z"/>
        <path class="cls-4" d="m80.52,266.52h-4.57v-1.66h11.02v1.66h-4.57v11.66h-1.88v-11.66Z"/>
        <path class="cls-4" d="m99.72,274.86h-7.08l-1.47,3.33h-1.96l6.03-13.32h1.88l6.05,13.32h-2l-1.46-3.33Zm-.67-1.52l-2.87-6.53-2.87,6.53h5.75Z"/>
        <path class="cls-4" d="m109.1,276.82c-.99-1.01-1.48-2.47-1.48-4.38v-7.57h1.9v7.5c0,2.85,1.25,4.28,3.75,4.28,1.22,0,2.15-.35,2.8-1.06s.97-1.78.97-3.22v-7.5h1.85v7.57c0,1.92-.49,3.38-1.48,4.39-.99,1.01-2.37,1.51-4.15,1.51s-3.16-.51-4.15-1.52Z"/>
        <path class="cls-4" d="m134.54,278.19l-2.87-4.09c-.36.03-.63.04-.84.04h-3.29v4.05h-1.9v-13.32h5.19c1.72,0,3.08.41,4.07,1.24.99.82,1.48,1.96,1.48,3.41,0,1.03-.25,1.9-.76,2.63-.51.72-1.23,1.25-2.17,1.58l3.16,4.47h-2.07Zm-1.01-6.45c.63-.52.95-1.26.95-2.23s-.32-1.7-.95-2.22c-.63-.51-1.55-.77-2.76-.77h-3.23v5.99h3.23c1.2,0,2.12-.26,2.76-.78Z"/>
        <path class="cls-4" d="m150.8,274.86h-7.08l-1.47,3.33h-1.96l6.03-13.32h1.88l6.05,13.32h-2l-1.46-3.33Zm-.67-1.52l-2.87-6.53-2.87,6.53h5.75Z"/>
        <path class="cls-4" d="m170.55,264.87v13.32h-1.56l-7.99-9.93v9.93h-1.9v-13.32h1.56l7.99,9.93v-9.93h1.9Z"/>
        <path class="cls-4" d="m180.05,266.52h-4.57v-1.66h11.02v1.66h-4.57v11.66h-1.88v-11.66Z"/>
        <path class="cls-4" d="m201.09,276.53v1.66h-9.67v-13.32h9.4v1.66h-7.5v4.09h6.68v1.62h-6.68v4.3h7.76Z"/>
        <path class="cls-4" d="m224.74,278.39l-1.77-1.77c-1.18,1.14-2.66,1.71-4.45,1.71-.89,0-1.69-.15-2.4-.44-.71-.29-1.27-.7-1.66-1.23-.4-.53-.6-1.13-.6-1.8,0-.81.25-1.53.75-2.16.5-.63,1.33-1.27,2.48-1.93-.58-.58-1-1.11-1.24-1.58-.24-.47-.36-.96-.36-1.46,0-.9.33-1.62.98-2.17s1.53-.82,2.62-.82c1.01,0,1.82.25,2.42.74s.89,1.17.89,2.04c0,.67-.22,1.27-.66,1.81-.44.53-1.16,1.09-2.18,1.67l3.29,3.27c.38-.72.65-1.53.82-2.42l1.46.48c-.23,1.17-.62,2.18-1.16,3.04l1.79,1.79-1.03,1.22Zm-2.85-2.83l-3.79-3.77c-.91.51-1.55.98-1.91,1.42-.36.44-.54.93-.54,1.47,0,.63.28,1.15.83,1.54.55.39,1.27.59,2.16.59,1.32,0,2.4-.42,3.25-1.26Zm-4.2-9.03c-.34.3-.5.69-.5,1.17,0,.34.09.67.28.99.18.32.54.75,1.07,1.29.88-.49,1.48-.92,1.82-1.27.34-.35.5-.74.5-1.16,0-.44-.16-.8-.47-1.07-.31-.27-.75-.4-1.3-.4-.6,0-1.06.15-1.4.45Z"/>
        <path class="cls-4" d="m249.66,272.45c.44.56.67,1.28.67,2.14,0,1.15-.43,2.04-1.3,2.66-.87.62-2.13.93-3.8.93h-6.35v-13.32h5.97c1.52,0,2.7.3,3.53.91.83.61,1.25,1.45,1.25,2.53,0,.7-.16,1.3-.49,1.81-.32.51-.76.89-1.3,1.16.77.22,1.38.61,1.83,1.17Zm-8.89-6.04v4.26h3.9c.98,0,1.73-.18,2.25-.54.53-.36.79-.89.79-1.59s-.26-1.23-.79-1.59c-.53-.36-1.28-.54-2.25-.54h-3.9Zm6.81,9.7c.55-.35.82-.91.82-1.67,0-1.48-1.08-2.23-3.25-2.23h-4.38v4.43h4.38c1.08,0,1.89-.18,2.44-.53Z"/>
        <path class="cls-4" d="m264.62,274.86h-7.08l-1.46,3.33h-1.96l6.03-13.32h1.88l6.05,13.32h-2l-1.46-3.33Zm-.67-1.52l-2.87-6.53-2.87,6.53h5.75Z"/>
        <path class="cls-4" d="m281.81,278.19l-2.87-4.09c-.36.03-.63.04-.84.04h-3.29v4.05h-1.9v-13.32h5.19c1.72,0,3.08.41,4.07,1.24.99.82,1.48,1.96,1.48,3.41,0,1.03-.25,1.9-.76,2.63-.51.72-1.23,1.25-2.17,1.58l3.16,4.47h-2.07Zm-1.01-6.45c.63-.52.95-1.26.95-2.23s-.32-1.7-.95-2.22c-.63-.51-1.55-.77-2.76-.77h-3.23v5.99h3.23c1.2,0,2.12-.26,2.76-.78Z"/>
      </g>
    </g>
  </g>
</svg>